<?xml version="1.0" encoding="UTF-8" standalone="no"?><!DOCTYPE svg PUBLIC "-//W3C//DTD SVG 1.1//EN" "http://www.w3.org/Graphics/SVG/1.1/DTD/svg11.dtd"><svg width="100%" height="100%" viewBox="0 0 3334 3334" version="1.1" xmlns="http://www.w3.org/2000/svg" xmlns:xlink="http://www.w3.org/1999/xlink" xml:space="preserve" xmlns:serif="http://www.serif.com/" style="fill-rule:evenodd;clip-rule:evenodd;stroke-linejoin:round;stroke-miterlimit:2;"><path d="M336.505,215.391c-56.462,0 -101.771,46.006 -101.771,101.771l0,1133.42c0,56.461 46.006,101.77 101.771,101.77l425.206,0c56.461,0 101.77,-46.006 101.77,-101.77l0,-1132.72c0,-56.462 -46.006,-101.771 -101.77,-101.771l-425.206,0l-0,-0.697Z" style="fill:#fff;"/><path d="M3011.12,1148.75c-29.276,-30.67 -34.853,-77.373 -12.547,-113.62c0,-0.697 28.579,-49.491 32.065,-116.409c4.879,-91.315 -39.036,-172.173 -131.047,-241.182c-32.762,-25.094 -46.006,-68.312 -32.065,-107.347c0,-0.697 29.974,-92.709 -18.821,-179.841c-46.702,-83.647 -150.564,-143.594 -308.099,-177.053c-126.168,-27.185 -297.644,-32.065 -508.156,-15.335l-9.759,-0c-448.208,-9.759 -901.296,48.794 -906.176,49.491l-0.697,-0l-70.403,8.364c4.183,19.518 6.274,40.43 6.274,61.342l-0,1133.42c-0,29.973 -4.88,59.25 -13.244,86.435c12.547,46.703 47.4,150.564 129.653,239.091c312.979,248.153 618.988,1085.32 632.232,1121.57c5.576,14.638 6.97,30.67 4.182,46.703c-11.85,78.07 -7.668,173.567 9.062,202.147c36.944,-0.697 136.623,-11.153 196.57,-94.103c71.1,-98.285 68.312,-273.944 -8.365,-506.762c-117.105,-354.802 -126.864,-541.614 -34.155,-623.867c46.005,-41.126 107.347,-43.218 151.958,-27.185c42.521,9.759 82.95,18.123 121.289,24.397c2.788,0.697 6.273,1.394 9.061,2.091c213.997,46.703 597.379,75.282 730.518,-46.006c112.923,-103.165 32.761,-239.788 23.699,-254.426c-25.791,-39.035 -18.123,-89.921 16.73,-121.288c0.697,-0.697 73.888,-69.706 77.373,-162.415c2.789,-62.038 -26.488,-125.47 -87.132,-188.206Z" style="fill:#fff;"/><g><path d="M3189.57,1067.2c68.312,87.133 101.074,180.539 96.891,276.733c-4.182,105.953 -51.582,188.902 -90.617,239.788c45.308,112.923 62.735,290.673 -88.527,428.691c-110.832,101.073 -299.038,146.382 -559.738,133.835c-183.326,-8.365 -336.679,-42.521 -342.953,-43.915l-0.697,0c-34.852,-6.273 -71.797,-13.941 -109.438,-22.306c-2.788,44.612 4.88,155.444 87.133,404.991c97.588,296.947 92.011,524.188 -18.124,676.147c-115.712,159.626 -300.432,172.173 -354.803,172.173c-52.279,0 -100.376,-21.608 -134.532,-61.341c-77.373,-89.92 -68.312,-255.82 -58.553,-332.497c-92.012,-246.758 -349.923,-851.805 -568.102,-1019.8c-4.183,-2.788 -7.668,-6.274 -11.153,-9.759c-64.13,-67.615 -107.347,-140.806 -136.624,-204.935c-41.126,22.306 -87.829,34.853 -138.017,34.853l-425.206,-0c-160.323,-0 -289.976,-130.35 -289.976,-289.976l-0,-1132.72c-0,-160.324 130.35,-289.977 289.976,-289.977l425.206,0c62.038,0 119.894,19.518 167.294,52.977l163.808,-19.518c25.094,-3.485 471.212,-59.947 929.179,-50.885c82.95,-6.274 161.021,-9.759 233.515,-9.759c124.773,-0 233.514,9.759 324.132,29.276c213.3,45.309 358.985,135.927 432.873,269.065c56.462,101.771 56.462,202.844 47.4,266.973c138.715,125.471 163.112,264.186 158.232,361.774c-2.788,56.461 -15.335,104.558 -28.579,140.108Zm-2853.06,-851.805c-56.462,0 -101.771,46.006 -101.771,101.771l0,1133.42c0,56.461 46.006,101.77 101.771,101.77l425.206,0c56.461,0 101.77,-46.006 101.77,-101.77l0,-1132.72c0,-56.462 -46.006,-101.771 -101.77,-101.771l-425.206,0l-0,-0.697Zm2674.61,933.361c-29.276,-30.67 -34.853,-77.373 -12.547,-113.62c0,-0.697 28.579,-49.491 32.065,-116.409c4.879,-91.315 -39.036,-172.173 -131.047,-241.182c-32.762,-25.094 -46.006,-68.312 -32.065,-107.347c0,-0.697 29.974,-92.709 -18.821,-179.841c-46.702,-83.647 -150.564,-143.594 -308.099,-177.053c-126.168,-27.185 -297.644,-32.065 -508.156,-15.335l-9.759,-0c-448.208,-9.759 -901.296,48.794 -906.176,49.491l-0.697,-0l-70.403,8.364c4.183,19.518 6.274,40.43 6.274,61.342l-0,1133.42c-0,29.973 -4.88,59.25 -13.244,86.435c12.547,46.703 47.4,150.564 129.653,239.091c312.979,248.153 618.988,1085.32 632.232,1121.57c5.576,14.638 6.97,30.67 4.182,46.703c-11.85,78.07 -7.668,173.567 9.062,202.147c36.944,-0.697 136.623,-11.153 196.57,-94.103c71.1,-98.285 68.312,-273.944 -8.365,-506.762c-117.105,-354.802 -126.864,-541.614 -34.155,-623.867c46.005,-41.126 107.347,-43.218 151.958,-27.185c42.521,9.759 82.95,18.123 121.289,24.397c2.788,0.697 6.273,1.394 9.061,2.091c213.997,46.703 597.379,75.282 730.518,-46.006c112.923,-103.165 32.761,-239.788 23.699,-254.426c-25.791,-39.035 -18.123,-89.921 16.73,-121.288c0.697,-0.697 73.888,-69.706 77.373,-162.415c2.789,-62.038 -26.488,-125.47 -87.132,-188.206Z" style="fill-rule:nonzero;"/></g></svg>